<svg width="133" height="28" viewBox="0 0 133 28" fill="none" xmlns="http://www.w3.org/2000/svg">
<path d="M3.85211 9.85366V14.6341H0.5V9.78862C0.5 9.26829 0.608483 8.84553 0.825448 8.52033C1.06411 8.17344 1.41125 7.84824 1.86688 7.54472C2.47438 7.15447 3.26631 6.82927 4.24265 6.56911C5.24069 6.30894 6.32551 6.17886 7.49713 6.17886C9.38472 6.17886 10.3285 6.71003 10.3285 7.77236C10.3285 8.03252 10.2851 8.271 10.1983 8.48781C10.1333 8.70461 10.0465 8.89973 9.93799 9.07317C9.72102 9.02981 9.43896 8.98645 9.09182 8.94309C8.76637 8.89973 8.43008 8.87805 8.08293 8.87805C7.19338 8.87805 6.37976 8.97561 5.64207 9.17073C4.92609 9.34417 4.32944 9.57182 3.85211 9.85366ZM0.5 13.2358L3.85211 13.5285V21.7561C3.70024 21.7995 3.48327 21.8537 3.20122 21.9187C2.94086 21.9837 2.64795 22.0163 2.32251 22.0163C1.715 22.0163 1.25938 21.897 0.955627 21.6585C0.651876 21.4201 0.5 21.0298 0.5 20.4878V13.2358Z" fill="#15B79E"/>
<path d="M18.6229 19.6748C19.4039 19.6748 20.0657 19.5989 20.6081 19.4472C21.1722 19.2737 21.5844 19.1111 21.8448 18.9594V14.7642L18.2323 15.122C17.2343 15.2087 16.4749 15.4363 15.9542 15.8049C15.4552 16.1518 15.2057 16.6721 15.2057 17.3659C15.2057 18.0813 15.4877 18.645 16.0518 19.0569C16.6159 19.4688 17.4729 19.6748 18.6229 19.6748ZM18.5252 6.14634C20.543 6.14634 22.1377 6.59079 23.3093 7.47967C24.5026 8.34688 25.0993 9.72358 25.0993 11.6098V19.187C25.0993 19.6856 24.9908 20.0759 24.7738 20.3577C24.5569 20.6396 24.2531 20.8889 23.8626 21.1057C23.2985 21.4309 22.5608 21.7019 21.6495 21.9187C20.76 22.1572 19.7511 22.2764 18.6229 22.2764C16.5183 22.2764 14.8694 21.8753 13.6761 21.0732C12.5044 20.2493 11.9186 19.0461 11.9186 17.4634C11.9186 16.0325 12.3851 14.9377 13.3181 14.1789C14.251 13.3984 15.5745 12.9322 17.2885 12.7805L21.8448 12.3252V11.5772C21.8448 10.6016 21.5302 9.89702 20.901 9.46341C20.2718 9.02981 19.4148 8.81301 18.33 8.81301C17.4621 8.81301 16.6159 8.93225 15.7915 9.17073C14.9887 9.40921 14.2727 9.68022 13.6435 9.98374C13.4482 9.8103 13.2747 9.60434 13.1228 9.36585C12.9709 9.10569 12.895 8.83469 12.895 8.55285C12.895 7.88076 13.2638 7.37127 14.0015 7.02439C14.609 6.74255 15.3033 6.52574 16.0844 6.37398C16.8871 6.22222 17.7008 6.14634 18.5252 6.14634Z" fill="#15B79E"/>
<path d="M39.7043 18.8293V8.26016H43.0564V19.0894C43.0564 19.5447 42.9587 19.9133 42.7635 20.1951C42.5682 20.477 42.2536 20.748 41.8197 21.0081C41.3423 21.3117 40.6806 21.5935 39.8344 21.8537C38.9883 22.1355 38.0119 22.2764 36.9054 22.2764C35.2565 22.2764 33.8136 21.9946 32.5769 21.4309C31.3619 20.8672 30.4073 20 29.713 18.8293C29.0404 17.6369 28.7041 16.1192 28.7041 14.2764C28.7041 12.3902 29.0404 10.8509 29.713 9.65854C30.3856 8.46613 31.3077 7.58808 32.4793 7.02439C33.6509 6.43902 34.931 6.14634 36.3196 6.14634C37.1441 6.14634 37.9143 6.25474 38.6303 6.47154C39.3463 6.68835 39.9104 6.95935 40.3226 7.28455V10.2114C39.9321 9.84282 39.433 9.52846 38.8255 9.26829C38.218 8.98645 37.5129 8.84553 36.7101 8.84553C35.864 8.84553 35.0829 9.02981 34.3669 9.39837C33.6726 9.74526 33.1194 10.3198 32.7071 11.122C32.2949 11.9241 32.0888 12.9864 32.0888 14.3089C32.0888 16.1301 32.5227 17.4634 33.3906 18.3089C34.2584 19.1545 35.4192 19.5772 36.8729 19.5772C37.5454 19.5772 38.0987 19.5014 38.5326 19.3496C38.9883 19.1978 39.3788 19.0244 39.7043 18.8293ZM43.0564 9.00813H39.7043V0.715446C39.8561 0.672086 40.0731 0.617885 40.3551 0.552844C40.6372 0.487804 40.9301 0.455285 41.2339 0.455285C41.8631 0.455285 42.3187 0.574525 42.6007 0.813007C42.9045 1.02981 43.0564 1.42005 43.0564 1.98374V9.00813Z" fill="#15B79E"/>
<path d="M47.4057 1.95122C47.4057 1.38753 47.6009 0.921408 47.9915 0.552844C48.382 0.184281 48.8593 0 49.4234 0C50.0309 0 50.5191 0.184281 50.888 0.552844C51.2568 0.921408 51.4412 1.38753 51.4412 1.95122C51.4412 2.49322 51.2568 2.95935 50.888 3.34959C50.5191 3.71816 50.0309 3.90244 49.4234 3.90244C48.8593 3.90244 48.382 3.71816 47.9915 3.34959C47.6009 2.95935 47.4057 2.49322 47.4057 1.95122ZM47.7637 13.2358H51.1158V21.7561C50.9639 21.7995 50.7469 21.8537 50.4649 21.9187C50.2045 21.9837 49.9116 22.0163 49.5862 22.0163C48.9787 22.0163 48.523 21.897 48.2193 21.6585C47.9155 21.4201 47.7637 21.0298 47.7637 20.4878V13.2358ZM51.1158 14.8943H47.7637V6.69919C47.9155 6.65583 48.1325 6.61247 48.4146 6.56911C48.6966 6.50406 49.0004 6.47154 49.3258 6.47154C49.9333 6.47154 50.3781 6.59078 50.6601 6.82927C50.9639 7.04607 51.1158 7.43631 51.1158 8V14.8943Z" fill="#15B79E"/>
<path d="M61.4968 19.6748C62.2779 19.6748 62.9396 19.5989 63.482 19.4472C64.0461 19.2737 64.4584 19.1111 64.7187 18.9594V14.7642L61.1062 15.122C60.1082 15.2087 59.3488 15.4363 58.8281 15.8049C58.3291 16.1518 58.0796 16.6721 58.0796 17.3659C58.0796 18.0813 58.3616 18.645 58.9258 19.0569C59.4899 19.4688 60.3469 19.6748 61.4968 19.6748ZM61.3992 6.14634C63.4169 6.14634 65.0116 6.59079 66.1832 7.47967C67.3765 8.34688 67.9732 9.72358 67.9732 11.6098V19.187C67.9732 19.6856 67.8647 20.0759 67.6478 20.3577C67.4308 20.6396 67.127 20.8889 66.7365 21.1057C66.1724 21.4309 65.4347 21.7019 64.5235 21.9187C63.6339 22.1572 62.625 22.2764 61.4968 22.2764C59.3922 22.2764 57.7433 21.8753 56.55 21.0732C55.3784 20.2493 54.7926 19.0461 54.7926 17.4634C54.7926 16.0325 55.259 14.9377 56.192 14.1789C57.1249 13.3984 58.4484 12.9322 60.1624 12.7805L64.7187 12.3252V11.5772C64.7187 10.6016 64.4041 9.89702 63.7749 9.46341C63.1457 9.02981 62.2887 8.81301 61.2039 8.81301C60.336 8.81301 59.4899 8.93225 58.6654 9.17073C57.8626 9.40921 57.1466 9.68022 56.5174 9.98374C56.3222 9.8103 56.1486 9.60434 55.9967 9.36585C55.8448 9.10569 55.7689 8.83469 55.7689 8.55285C55.7689 7.88076 56.1378 7.37127 56.8754 7.02439C57.4829 6.74255 58.1772 6.52574 58.9583 6.37398C59.7611 6.22222 60.5747 6.14634 61.3992 6.14634Z" fill="#15B79E"/>
<path d="M86.0279 11.8374V15.0569H82.6758V11.9675C82.6758 10.8835 82.3721 10.0921 81.7645 9.5935C81.1571 9.09485 80.3434 8.84553 79.3237 8.84553C78.5643 8.84553 77.8809 8.94309 77.2734 9.13821C76.6659 9.33333 76.1452 9.55014 75.7112 9.78862V15.0569H72.3591V9.72358C72.3591 9.22493 72.4568 8.82385 72.652 8.52033C72.869 8.19512 73.2053 7.8916 73.6609 7.60976C74.2684 7.24119 75.0603 6.90515 76.0367 6.60163C77.013 6.2981 78.1087 6.14634 79.3237 6.14634C81.4283 6.14634 83.0664 6.62331 84.238 7.57723C85.4313 8.50948 86.0279 9.92954 86.0279 11.8374ZM72.3591 13.3659H75.7112V21.7561C75.5593 21.7995 75.3424 21.8537 75.0603 21.9187C74.8 21.9837 74.5071 22.0163 74.1816 22.0163C73.5741 22.0163 73.1185 21.897 72.8147 21.6585C72.511 21.4201 72.3591 21.0298 72.3591 20.4878V13.3659ZM82.6758 13.3659H86.0279V21.7561C85.876 21.7995 85.6591 21.8537 85.377 21.9187C85.095 21.9837 84.8021 22.0163 84.4983 22.0163C83.8691 22.0163 83.4026 21.897 83.0989 21.6585C82.8168 21.4201 82.6758 21.0298 82.6758 20.4878V13.3659Z" fill="#15B79E"/>
<path d="M101.8 17.626C101.8 19.0786 101.257 20.2168 100.172 21.0407C99.1093 21.8645 97.558 22.2764 95.5185 22.2764C93.8262 22.2764 92.4376 22.0163 91.3528 21.4959C90.268 20.9756 89.7256 20.3469 89.7256 19.6098C89.7256 19.2846 89.8015 18.9919 89.9534 18.7317C90.127 18.4499 90.3548 18.2222 90.6368 18.0488C91.2443 18.439 91.9386 18.7967 92.7197 19.122C93.5225 19.4472 94.4229 19.6098 95.4209 19.6098C97.4604 19.6098 98.4801 18.9594 98.4801 17.6585C98.4801 17.0949 98.3065 16.6504 97.9594 16.3252C97.6123 15.9783 97.0915 15.7182 96.3972 15.5447L94.1191 14.9594C92.6654 14.6341 91.5915 14.1138 90.8972 13.3984C90.2029 12.6829 89.8558 11.7615 89.8558 10.6341C89.8558 9.37669 90.3656 8.31436 91.3854 7.44715C92.4268 6.57995 93.9347 6.14634 95.9091 6.14634C96.9288 6.14634 97.8292 6.25474 98.6103 6.47154C99.4131 6.66667 100.031 6.94851 100.465 7.31707C100.921 7.68564 101.149 8.09756 101.149 8.55285C101.149 8.87805 101.073 9.17073 100.921 9.43089C100.769 9.69106 100.574 9.88618 100.335 10.0163C100.075 9.8645 99.7277 9.69106 99.2937 9.49593C98.8598 9.30081 98.3608 9.13821 97.7967 9.00813C97.2543 8.87805 96.6901 8.81301 96.1043 8.81301C95.1931 8.81301 94.4663 8.97561 93.9239 9.30081C93.4031 9.60434 93.1428 10.0488 93.1428 10.6341C93.1428 11.0461 93.2946 11.4146 93.5984 11.7398C93.9021 12.0434 94.412 12.271 95.128 12.4228L97.0481 12.9106C98.6754 13.2791 99.8687 13.8537 100.628 14.6341C101.409 15.393 101.8 16.3902 101.8 17.626Z" fill="#15B79E"/>
<path d="M107.865 18.3089C107.496 17.5935 107.073 16.6721 106.595 15.5447C106.118 14.4173 105.619 13.1382 105.098 11.7073C104.578 10.2764 104.079 8.74797 103.601 7.12195C103.775 6.88347 104.014 6.68835 104.317 6.53658C104.643 6.38482 104.99 6.30894 105.359 6.30894C105.836 6.30894 106.227 6.41734 106.53 6.63415C106.834 6.85095 107.073 7.24119 107.246 7.80488C107.832 9.56098 108.451 11.2954 109.101 13.0081C109.752 14.7209 110.447 16.4878 111.184 18.3089H111.314C111.748 17.3767 112.193 16.2493 112.649 14.9268C113.104 13.6043 113.538 12.2168 113.951 10.7642C114.385 9.31165 114.732 7.93496 114.992 6.63415C115.209 6.54743 115.437 6.47154 115.675 6.4065C115.914 6.34146 116.164 6.30894 116.424 6.30894C116.901 6.30894 117.292 6.41734 117.596 6.63415C117.921 6.85095 118.084 7.19783 118.084 7.6748C118.084 8.1084 117.986 8.74797 117.791 9.5935C117.617 10.4173 117.357 11.3604 117.01 12.4228C116.684 13.4851 116.305 14.6016 115.871 15.7724C115.458 16.9214 115.003 18.0488 114.504 19.1545C114.005 20.2602 113.506 21.2575 113.007 22.1463C111.965 24.0542 111 25.5068 110.11 26.5041C109.242 27.5014 108.418 28 107.637 28C107.029 28 106.552 27.8266 106.205 27.4797C105.858 27.1545 105.652 26.7534 105.587 26.2764C106.042 25.8645 106.552 25.3442 107.116 24.7154C107.68 24.1084 108.223 23.4363 108.743 22.6992C109.286 21.9837 109.731 21.3008 110.078 20.6504C109.709 20.542 109.351 20.336 109.004 20.0325C108.657 19.7073 108.277 19.1328 107.865 18.3089Z" fill="#15B79E"/>
<path d="M132.66 17.626C132.66 19.0786 132.118 20.2168 131.033 21.0407C129.97 21.8645 128.418 22.2764 126.379 22.2764C124.687 22.2764 123.298 22.0163 122.213 21.4959C121.128 20.9756 120.586 20.3469 120.586 19.6098C120.586 19.2846 120.662 18.9919 120.814 18.7317C120.987 18.4499 121.215 18.2222 121.497 18.0488C122.105 18.439 122.799 18.7967 123.58 19.122C124.383 19.4472 125.283 19.6098 126.281 19.6098C128.321 19.6098 129.34 18.9594 129.34 17.6585C129.34 17.0949 129.167 16.6504 128.82 16.3252C128.473 15.9783 127.952 15.7182 127.258 15.5447L124.979 14.9594C123.526 14.6341 122.452 14.1138 121.758 13.3984C121.063 12.6829 120.716 11.7615 120.716 10.6341C120.716 9.37669 121.226 8.31436 122.246 7.44715C123.287 6.57995 124.795 6.14634 126.769 6.14634C127.789 6.14634 128.69 6.25474 129.471 6.47154C130.273 6.66667 130.892 6.94851 131.326 7.31707C131.781 7.68564 132.009 8.09756 132.009 8.55285C132.009 8.87805 131.933 9.17073 131.781 9.43089C131.629 9.69106 131.434 9.88618 131.195 10.0163C130.935 9.8645 130.588 9.69106 130.154 9.49593C129.72 9.30081 129.221 9.13821 128.657 9.00813C128.115 8.87805 127.55 8.81301 126.965 8.81301C126.053 8.81301 125.327 8.97561 124.784 9.30081C124.263 9.60434 124.003 10.0488 124.003 10.6341C124.003 11.0461 124.155 11.4146 124.459 11.7398C124.762 12.0434 125.272 12.271 125.988 12.4228L127.908 12.9106C129.536 13.2791 130.729 13.8537 131.488 14.6341C132.269 15.393 132.66 16.3902 132.66 17.626Z" fill="#15B79E"/>
</svg>
